<svg width="800" height="800" viewBox="0 0 800 800" fill="none" xmlns="http://www.w3.org/2000/svg">
<g clip-path="url(#clip0_155_17616)">
<rect width="800" height="800" fill="white"/>
<path d="M540.681 241.102C618.801 241.102 682.131 304.431 682.131 382.552C682.131 460.672 618.802 524.001 540.682 524.001H347.358L349.257 524.263C302.692 531.505 256.166 562.409 215.013 593.526C206.562 599.916 195.51 592.472 198.971 582.459C208.239 555.647 217.518 532.413 209.418 515.27C155.465 495.33 117 443.434 117 382.552C117 304.431 180.329 241.102 258.449 241.102H540.681ZM399.589 271.412C409.242 288.517 427.822 329.589 427.822 392.338C427.822 437.78 418.076 471.854 409.035 493.689H537.085C598.465 493.689 648.224 443.931 648.224 382.551C648.224 321.171 598.465 271.412 537.085 271.412H399.589Z" fill="white"/>
<path d="M540.681 241.102C618.801 241.102 682.131 304.431 682.131 382.552C682.131 460.672 618.802 524.001 540.682 524.001H347.358L349.257 524.263C302.692 531.505 256.166 562.409 215.013 593.526C206.562 599.916 195.51 592.472 198.971 582.459C208.239 555.647 217.518 532.413 209.418 515.27C155.465 495.33 117 443.434 117 382.552C117 304.431 180.329 241.102 258.449 241.102H540.681ZM399.589 271.412C409.242 288.517 427.822 329.589 427.822 392.338C427.822 437.78 418.076 471.854 409.035 493.689H537.085C598.465 493.689 648.224 443.931 648.224 382.551C648.224 321.171 598.465 271.412 537.085 271.412H399.589Z" fill="url(#paint0_radial_155_17616)"/>
</g>
<defs>
<radialGradient id="paint0_radial_155_17616" cx="0" cy="0" r="1" gradientUnits="userSpaceOnUse" gradientTransform="translate(102.347 471.296) scale(649.482 431.888)">
<stop stop-color="#2ED0CA"/>
<stop offset="1" stop-color="#4B8FDC"/>
</radialGradient>
<clipPath id="clip0_155_17616">
<rect width="800" height="800" rx="200" fill="white"/>
</clipPath>
</defs>
</svg>
