<svg width="800" height="800" viewBox="0 0 800 800" fill="none" xmlns="http://www.w3.org/2000/svg">
<path d="M0 200C0 89.543 89.543 0 200 0H600C710.457 0 800 89.543 800 200V600C800 710.457 710.457 800 600 800H200C89.543 800 0 710.457 0 600V200Z" fill="url(#paint0_radial_155_17637)"/>
<path d="M523.894 241.102C611.285 241.102 682.131 311.947 682.131 399.339C682.131 486.73 611.286 557.575 523.895 557.575H333.545C292.288 568.466 251.535 595.911 215.013 623.526C206.562 629.916 195.51 622.472 198.971 612.459C208.726 584.238 218.494 559.98 207.994 542.616C154.226 517.338 117 462.686 117 399.339C117 311.947 187.845 241.102 275.236 241.102H523.894ZM397.604 275.009C406.391 289.556 427.822 331.946 427.822 399.338C427.822 466.73 406.391 509.12 397.604 523.667H523.894C592.559 523.667 648.223 468.003 648.223 399.338C648.223 330.673 592.559 275.009 523.894 275.009H397.604Z" fill="white"/>
<defs>
<radialGradient id="paint0_radial_155_17637" cx="0" cy="0" r="1" gradientUnits="userSpaceOnUse" gradientTransform="translate(-20.7435 478.574) scale(919.408 897.893)">
<stop stop-color="#2ED0CA"/>
<stop offset="1" stop-color="#4B8FDC"/>
</radialGradient>
</defs>
</svg>
